<svg width="15.159424" height="17.000000" viewBox="0 0 15.1594 17" fill="none" xmlns="http://www.w3.org/2000/svg" xmlns:xlink="http://www.w3.org/1999/xlink">
	<desc>
			Created with Pixso.
	</desc>
	<defs>
		<clipPath id="clip190_1610">
			<rect id="instagram-brands 1" rx="0.000000" width="14.159375" height="16.000000" transform="translate(0.500000 0.500000)" fill="white" fill-opacity="0"/>
		</clipPath>
	</defs>
	<rect id="instagram-brands 1" rx="0.000000" width="14.159375" height="16.000000" transform="translate(0.500000 0.500000)" fill="#FFFFFF" fill-opacity="0"/>
	<g clip-path="url(#clip190_1610)">
		<path id="Vector" d="M7.58 4.68C5.43 4.68 3.69 6.38 3.69 8.49C3.69 10.6 5.43 12.31 7.58 12.31C9.73 12.31 11.47 10.6 11.47 8.49C11.47 6.38 9.73 4.68 7.58 4.68ZM7.58 10.97C6.19 10.97 5.05 9.86 5.05 8.49C5.05 7.12 6.18 6.01 7.58 6.01C8.97 6.01 10.11 7.12 10.11 8.49C10.11 9.86 8.97 10.97 7.58 10.97ZM12.53 4.52C12.53 5.02 12.13 5.41 11.63 5.41C11.12 5.41 10.72 5.01 10.72 4.52C10.72 4.03 11.12 3.63 11.63 3.63C12.13 3.63 12.53 4.03 12.53 4.52ZM15.11 5.42C15.05 4.23 14.77 3.18 13.88 2.31C13 1.44 11.92 1.16 10.7 1.1C9.45 1.03 5.7 1.03 4.45 1.1C3.24 1.16 2.16 1.43 1.27 2.3C0.38 3.17 0.11 4.23 0.05 5.42C-0.03 6.65 -0.03 10.33 0.05 11.56C0.1 12.75 0.38 13.81 1.27 14.68C2.16 15.55 3.23 15.82 4.45 15.88C5.7 15.95 9.45 15.95 10.7 15.88C11.92 15.82 13 15.55 13.88 14.68C14.77 13.81 15.05 12.75 15.11 11.56C15.18 10.33 15.18 6.65 15.11 5.42ZM13.49 12.88C13.23 13.53 12.71 14.03 12.05 14.29C11.05 14.68 8.68 14.59 7.58 14.59C6.48 14.59 4.1 14.68 3.11 14.29C2.44 14.03 1.93 13.53 1.67 12.88C1.27 11.9 1.36 9.57 1.36 8.49C1.36 7.41 1.27 5.08 1.67 4.11C1.93 3.45 2.44 2.95 3.11 2.69C4.11 2.3 6.48 2.39 7.58 2.39C8.68 2.39 11.05 2.31 12.05 2.69C12.71 2.95 13.22 3.45 13.49 4.11C13.89 5.09 13.79 7.41 13.79 8.49C13.79 9.57 13.89 11.9 13.49 12.88Z" fill="#000000" fill-opacity="1.000000" fill-rule="nonzero"/>
	</g>
</svg>
