<svg width="16.170044" height="16.000000" viewBox="0 0 16.17 16" fill="none" xmlns="http://www.w3.org/2000/svg" xmlns:xlink="http://www.w3.org/1999/xlink">
	<desc>
			Created with Pixso.
	</desc>
	<defs>
		<clipPath id="clip190_1614">
			<rect rx="0.000000" width="15.170000" height="15.000000" transform="translate(0.500000 0.500000)" fill="white" fill-opacity="0"/>
		</clipPath>
	</defs>
	<rect rx="0.000000" width="15.170000" height="15.000000" transform="translate(0.500000 0.500000)" fill="#FFFFFF" fill-opacity="0"/>
	<g clip-path="url(#clip190_1614)">
		<path d="M14.5 4.74C14.51 4.88 14.51 5.02 14.51 5.16C14.51 9.5 11.18 14.49 5.08 14.49C3.21 14.49 1.46 13.95 0 13.02C0.26 13.05 0.52 13.06 0.8 13.06C2.34 13.06 3.77 12.54 4.91 11.66C3.45 11.63 2.23 10.69 1.81 9.39C2.02 9.42 2.22 9.44 2.44 9.44C2.73 9.44 3.03 9.4 3.31 9.32C1.79 9.02 0.65 7.7 0.65 6.11L0.65 6.07C1.09 6.31 1.61 6.46 2.15 6.48C1.26 5.89 0.67 4.89 0.67 3.75C0.67 3.14 0.84 2.58 1.12 2.1C2.76 4.09 5.21 5.39 7.96 5.53C7.91 5.28 7.87 5.03 7.87 4.78C7.87 2.97 9.35 1.5 11.19 1.5C12.14 1.5 13 1.89 13.61 2.53C14.36 2.39 15.08 2.12 15.71 1.74C15.47 2.5 14.94 3.14 14.26 3.55C14.92 3.48 15.57 3.29 16.16 3.04C15.71 3.69 15.15 4.27 14.5 4.74Z" fill="#000000" fill-opacity="1.000000" fill-rule="nonzero"/>
	</g>
</svg>
